solid ascii
  facet normal 0.000000e+000 -7.071068e-001 -7.071068e-001
    outer loop
      vertex   -1.550000e+002 4.875000e+001 2.550000e+001
      vertex   -1.100000e+002 4.875000e+001 2.550000e+001
      vertex   -1.550000e+002 4.775000e+001 2.650000e+001
    endloop
  endfacet
  facet normal 0.000000e+000 -7.071068e-001 -7.071068e-001
    outer loop
      vertex   -1.550000e+002 4.775000e+001 2.650000e+001
      vertex   -1.100000e+002 4.875000e+001 2.550000e+001
      vertex   -1.100000e+002 4.775000e+001 2.650000e+001
    endloop
  endfacet
  facet normal 0.000000e+000 -7.071068e-001 -7.071068e-001
    outer loop
      vertex   -1.100000e+002 4.775000e+001 2.650000e+001
      vertex   -1.100000e+002 4.875000e+001 2.550000e+001
      vertex   -6.500000e+001 4.875000e+001 2.550000e+001
    endloop
  endfacet
  facet normal -0.000000e+000 -7.071068e-001 -7.071068e-001
    outer loop
      vertex   -6.500000e+001 4.775000e+001 2.650000e+001
      vertex   -1.100000e+002 4.775000e+001 2.650000e+001
      vertex   -6.500000e+001 4.875000e+001 2.550000e+001
    endloop
  endfacet
  facet normal 0.000000e+000 -1.000000e+000 -4.060244e-015
    outer loop
      vertex   -1.550000e+002 4.775000e+001 3.000000e+001
      vertex   -1.550000e+002 4.775000e+001 2.650000e+001
      vertex   -1.100000e+002 4.775000e+001 3.000000e+001
    endloop
  endfacet
  facet normal 0.000000e+000 -1.000000e+000 -4.060244e-015
    outer loop
      vertex   -1.100000e+002 4.775000e+001 3.000000e+001
      vertex   -1.550000e+002 4.775000e+001 2.650000e+001
      vertex   -1.100000e+002 4.775000e+001 2.650000e+001
    endloop
  endfacet
  facet normal 0.000000e+000 -1.000000e+000 -4.060244e-015
    outer loop
      vertex   -6.500000e+001 4.775000e+001 3.000000e+001
      vertex   -1.100000e+002 4.775000e+001 2.650000e+001
      vertex   -6.500000e+001 4.775000e+001 2.650000e+001
    endloop
  endfacet
  facet normal -0.000000e+000 -1.000000e+000 -4.060244e-015
    outer loop
      vertex   -6.500000e+001 4.775000e+001 3.000000e+001
      vertex   -1.100000e+002 4.775000e+001 3.000000e+001
      vertex   -1.100000e+002 4.775000e+001 2.650000e+001
    endloop
  endfacet
  facet normal 1.000000e+000 0.000000e+000 -0.000000e+000
    outer loop
      vertex   -6.500000e+001 4.875000e+001 2.550000e+001
      vertex   -6.500000e+001 5.225000e+001 2.650000e+001
      vertex   -6.500000e+001 4.775000e+001 2.650000e+001
    endloop
  endfacet
  facet normal 1.000000e+000 0.000000e+000 0.000000e+000
    outer loop
      vertex   -6.500000e+001 4.875000e+001 2.550000e+001
      vertex   -6.500000e+001 5.125000e+001 2.550000e+001
      vertex   -6.500000e+001 5.225000e+001 2.650000e+001
    endloop
  endfacet
  facet normal 1.000000e+000 0.000000e+000 -0.000000e+000
    outer loop
      vertex   -6.500000e+001 5.225000e+001 2.650000e+001
      vertex   -6.500000e+001 5.225000e+001 3.000000e+001
      vertex   -6.500000e+001 4.775000e+001 2.650000e+001
    endloop
  endfacet
  facet normal 1.000000e+000 0.000000e+000 -0.000000e+000
    outer loop
      vertex   -6.500000e+001 4.775000e+001 2.650000e+001
      vertex   -6.500000e+001 5.225000e+001 3.000000e+001
      vertex   -6.500000e+001 4.775000e+001 3.000000e+001
    endloop
  endfacet
  facet normal 0.000000e+000 7.071068e-001 -7.071068e-001
    outer loop
      vertex   -6.500000e+001 5.125000e+001 2.550000e+001
      vertex   -1.100000e+002 5.125000e+001 2.550000e+001
      vertex   -6.500000e+001 5.225000e+001 2.650000e+001
    endloop
  endfacet
  facet normal 0.000000e+000 7.071068e-001 -7.071068e-001
    outer loop
      vertex   -6.500000e+001 5.225000e+001 2.650000e+001
      vertex   -1.100000e+002 5.125000e+001 2.550000e+001
      vertex   -1.100000e+002 5.225000e+001 2.650000e+001
    endloop
  endfacet
  facet normal 0.000000e+000 7.071068e-001 -7.071068e-001
    outer loop
      vertex   -1.100000e+002 5.225000e+001 2.650000e+001
      vertex   -1.100000e+002 5.125000e+001 2.550000e+001
      vertex   -1.550000e+002 5.125000e+001 2.550000e+001
    endloop
  endfacet
  facet normal 0.000000e+000 7.071068e-001 -7.071068e-001
    outer loop
      vertex   -1.550000e+002 5.225000e+001 2.650000e+001
      vertex   -1.100000e+002 5.225000e+001 2.650000e+001
      vertex   -1.550000e+002 5.125000e+001 2.550000e+001
    endloop
  endfacet
  facet normal 0.000000e+000 1.000000e+000 -4.060244e-015
    outer loop
      vertex   -6.500000e+001 5.225000e+001 3.000000e+001
      vertex   -6.500000e+001 5.225000e+001 2.650000e+001
      vertex   -1.100000e+002 5.225000e+001 3.000000e+001
    endloop
  endfacet
  facet normal 0.000000e+000 1.000000e+000 -4.060244e-015
    outer loop
      vertex   -1.100000e+002 5.225000e+001 3.000000e+001
      vertex   -6.500000e+001 5.225000e+001 2.650000e+001
      vertex   -1.100000e+002 5.225000e+001 2.650000e+001
    endloop
  endfacet
  facet normal 0.000000e+000 1.000000e+000 -4.060244e-015
    outer loop
      vertex   -1.550000e+002 5.225000e+001 3.000000e+001
      vertex   -1.100000e+002 5.225000e+001 2.650000e+001
      vertex   -1.550000e+002 5.225000e+001 2.650000e+001
    endloop
  endfacet
  facet normal 0.000000e+000 1.000000e+000 -4.060244e-015
    outer loop
      vertex   -1.550000e+002 5.225000e+001 3.000000e+001
      vertex   -1.100000e+002 5.225000e+001 3.000000e+001
      vertex   -1.100000e+002 5.225000e+001 2.650000e+001
    endloop
  endfacet
  facet normal 0.000000e+000 0.000000e+000 -1.000000e+000
    outer loop
      vertex   -6.500000e+001 4.875000e+001 2.550000e+001
      vertex   -1.100000e+002 4.875000e+001 2.550000e+001
      vertex   -6.500000e+001 5.125000e+001 2.550000e+001
    endloop
  endfacet
  facet normal -0.000000e+000 0.000000e+000 -1.000000e+000
    outer loop
      vertex   -6.500000e+001 5.125000e+001 2.550000e+001
      vertex   -1.100000e+002 4.875000e+001 2.550000e+001
      vertex   -1.100000e+002 5.125000e+001 2.550000e+001
    endloop
  endfacet
  facet normal -0.000000e+000 -0.000000e+000 -1.000000e+000
    outer loop
      vertex   -1.100000e+002 5.125000e+001 2.550000e+001
      vertex   -1.100000e+002 4.875000e+001 2.550000e+001
      vertex   -1.550000e+002 4.875000e+001 2.550000e+001
    endloop
  endfacet
  facet normal 0.000000e+000 -0.000000e+000 -1.000000e+000
    outer loop
      vertex   -1.550000e+002 5.125000e+001 2.550000e+001
      vertex   -1.100000e+002 5.125000e+001 2.550000e+001
      vertex   -1.550000e+002 4.875000e+001 2.550000e+001
    endloop
  endfacet
  facet normal 0.000000e+000 0.000000e+000 1.000000e+000
    outer loop
      vertex   -1.385000e+002 5.150000e+001 3.200000e+001
      vertex   -1.415000e+002 5.150000e+001 3.200000e+001
      vertex   -1.385000e+002 4.850000e+001 3.200000e+001
    endloop
  endfacet
  facet normal 0.000000e+000 0.000000e+000 1.000000e+000
    outer loop
      vertex   -1.385000e+002 4.850000e+001 3.200000e+001
      vertex   -1.415000e+002 5.150000e+001 3.200000e+001
      vertex   -1.415000e+002 4.850000e+001 3.200000e+001
    endloop
  endfacet
  facet normal 0.000000e+000 -1.000000e+000 0.000000e+000
    outer loop
      vertex   -1.415000e+002 4.850000e+001 3.200000e+001
      vertex   -1.415000e+002 4.850000e+001 3.000000e+001
      vertex   -1.385000e+002 4.850000e+001 3.200000e+001
    endloop
  endfacet
  facet normal 0.000000e+000 -1.000000e+000 -0.000000e+000
    outer loop
      vertex   -1.385000e+002 4.850000e+001 3.200000e+001
      vertex   -1.415000e+002 4.850000e+001 3.000000e+001
      vertex   -1.385000e+002 4.850000e+001 3.000000e+001
    endloop
  endfacet
  facet normal -1.000000e+000 -0.000000e+000 -0.000000e+000
    outer loop
      vertex   -1.415000e+002 5.150000e+001 3.200000e+001
      vertex   -1.415000e+002 5.150000e+001 3.000000e+001
      vertex   -1.415000e+002 4.850000e+001 3.200000e+001
    endloop
  endfacet
  facet normal -1.000000e+000 -0.000000e+000 -0.000000e+000
    outer loop
      vertex   -1.415000e+002 4.850000e+001 3.200000e+001
      vertex   -1.415000e+002 5.150000e+001 3.000000e+001
      vertex   -1.415000e+002 4.850000e+001 3.000000e+001
    endloop
  endfacet
  facet normal 0.000000e+000 1.000000e+000 0.000000e+000
    outer loop
      vertex   -1.385000e+002 5.150000e+001 3.200000e+001
      vertex   -1.385000e+002 5.150000e+001 3.000000e+001
      vertex   -1.415000e+002 5.150000e+001 3.200000e+001
    endloop
  endfacet
  facet normal 0.000000e+000 1.000000e+000 0.000000e+000
    outer loop
      vertex   -1.415000e+002 5.150000e+001 3.200000e+001
      vertex   -1.385000e+002 5.150000e+001 3.000000e+001
      vertex   -1.415000e+002 5.150000e+001 3.000000e+001
    endloop
  endfacet
  facet normal 1.000000e+000 -0.000000e+000 0.000000e+000
    outer loop
      vertex   -1.385000e+002 4.850000e+001 3.200000e+001
      vertex   -1.385000e+002 4.850000e+001 3.000000e+001
      vertex   -1.385000e+002 5.150000e+001 3.200000e+001
    endloop
  endfacet
  facet normal 1.000000e+000 -0.000000e+000 0.000000e+000
    outer loop
      vertex   -1.385000e+002 5.150000e+001 3.200000e+001
      vertex   -1.385000e+002 4.850000e+001 3.000000e+001
      vertex   -1.385000e+002 5.150000e+001 3.000000e+001
    endloop
  endfacet
  facet normal 0.000000e+000 0.000000e+000 1.000000e+000
    outer loop
      vertex   -7.850000e+001 5.150000e+001 3.200000e+001
      vertex   -8.150000e+001 5.150000e+001 3.200000e+001
      vertex   -7.850000e+001 4.850000e+001 3.200000e+001
    endloop
  endfacet
  facet normal 0.000000e+000 0.000000e+000 1.000000e+000
    outer loop
      vertex   -7.850000e+001 4.850000e+001 3.200000e+001
      vertex   -8.150000e+001 5.150000e+001 3.200000e+001
      vertex   -8.150000e+001 4.850000e+001 3.200000e+001
    endloop
  endfacet
  facet normal 0.000000e+000 -1.000000e+000 0.000000e+000
    outer loop
      vertex   -8.150000e+001 4.850000e+001 3.200000e+001
      vertex   -8.150000e+001 4.850000e+001 3.000000e+001
      vertex   -7.850000e+001 4.850000e+001 3.200000e+001
    endloop
  endfacet
  facet normal 0.000000e+000 -1.000000e+000 -0.000000e+000
    outer loop
      vertex   -7.850000e+001 4.850000e+001 3.200000e+001
      vertex   -8.150000e+001 4.850000e+001 3.000000e+001
      vertex   -7.850000e+001 4.850000e+001 3.000000e+001
    endloop
  endfacet
  facet normal -1.000000e+000 -0.000000e+000 -0.000000e+000
    outer loop
      vertex   -8.150000e+001 5.150000e+001 3.200000e+001
      vertex   -8.150000e+001 5.150000e+001 3.000000e+001
      vertex   -8.150000e+001 4.850000e+001 3.200000e+001
    endloop
  endfacet
  facet normal -1.000000e+000 -0.000000e+000 -0.000000e+000
    outer loop
      vertex   -8.150000e+001 4.850000e+001 3.200000e+001
      vertex   -8.150000e+001 5.150000e+001 3.000000e+001
      vertex   -8.150000e+001 4.850000e+001 3.000000e+001
    endloop
  endfacet
  facet normal 0.000000e+000 1.000000e+000 0.000000e+000
    outer loop
      vertex   -7.850000e+001 5.150000e+001 3.200000e+001
      vertex   -7.850000e+001 5.150000e+001 3.000000e+001
      vertex   -8.150000e+001 5.150000e+001 3.200000e+001
    endloop
  endfacet
  facet normal 0.000000e+000 1.000000e+000 0.000000e+000
    outer loop
      vertex   -8.150000e+001 5.150000e+001 3.200000e+001
      vertex   -7.850000e+001 5.150000e+001 3.000000e+001
      vertex   -8.150000e+001 5.150000e+001 3.000000e+001
    endloop
  endfacet
  facet normal 1.000000e+000 -0.000000e+000 0.000000e+000
    outer loop
      vertex   -7.850000e+001 4.850000e+001 3.200000e+001
      vertex   -7.850000e+001 4.850000e+001 3.000000e+001
      vertex   -7.850000e+001 5.150000e+001 3.200000e+001
    endloop
  endfacet
  facet normal 1.000000e+000 -0.000000e+000 0.000000e+000
    outer loop
      vertex   -7.850000e+001 5.150000e+001 3.200000e+001
      vertex   -7.850000e+001 4.850000e+001 3.000000e+001
      vertex   -7.850000e+001 5.150000e+001 3.000000e+001
    endloop
  endfacet
  facet normal 0.000000e+000 0.000000e+000 1.000000e+000
    outer loop
      vertex   -1.085000e+002 5.150000e+001 3.200000e+001
      vertex   -1.115000e+002 5.150000e+001 3.200000e+001
      vertex   -1.085000e+002 4.850000e+001 3.200000e+001
    endloop
  endfacet
  facet normal 0.000000e+000 0.000000e+000 1.000000e+000
    outer loop
      vertex   -1.085000e+002 4.850000e+001 3.200000e+001
      vertex   -1.115000e+002 5.150000e+001 3.200000e+001
      vertex   -1.115000e+002 4.850000e+001 3.200000e+001
    endloop
  endfacet
  facet normal 0.000000e+000 -1.000000e+000 0.000000e+000
    outer loop
      vertex   -1.115000e+002 4.850000e+001 3.200000e+001
      vertex   -1.115000e+002 4.850000e+001 3.000000e+001
      vertex   -1.085000e+002 4.850000e+001 3.200000e+001
    endloop
  endfacet
  facet normal 0.000000e+000 -1.000000e+000 -0.000000e+000
    outer loop
      vertex   -1.085000e+002 4.850000e+001 3.200000e+001
      vertex   -1.115000e+002 4.850000e+001 3.000000e+001
      vertex   -1.085000e+002 4.850000e+001 3.000000e+001
    endloop
  endfacet
  facet normal -1.000000e+000 -0.000000e+000 -0.000000e+000
    outer loop
      vertex   -1.115000e+002 5.150000e+001 3.200000e+001
      vertex   -1.115000e+002 5.150000e+001 3.000000e+001
      vertex   -1.115000e+002 4.850000e+001 3.200000e+001
    endloop
  endfacet
  facet normal -1.000000e+000 -0.000000e+000 -0.000000e+000
    outer loop
      vertex   -1.115000e+002 4.850000e+001 3.200000e+001
      vertex   -1.115000e+002 5.150000e+001 3.000000e+001
      vertex   -1.115000e+002 4.850000e+001 3.000000e+001
    endloop
  endfacet
  facet normal 0.000000e+000 1.000000e+000 0.000000e+000
    outer loop
      vertex   -1.085000e+002 5.150000e+001 3.200000e+001
      vertex   -1.085000e+002 5.150000e+001 3.000000e+001
      vertex   -1.115000e+002 5.150000e+001 3.200000e+001
    endloop
  endfacet
  facet normal 0.000000e+000 1.000000e+000 0.000000e+000
    outer loop
      vertex   -1.115000e+002 5.150000e+001 3.200000e+001
      vertex   -1.085000e+002 5.150000e+001 3.000000e+001
      vertex   -1.115000e+002 5.150000e+001 3.000000e+001
    endloop
  endfacet
  facet normal 1.000000e+000 -0.000000e+000 0.000000e+000
    outer loop
      vertex   -1.085000e+002 4.850000e+001 3.200000e+001
      vertex   -1.085000e+002 4.850000e+001 3.000000e+001
      vertex   -1.085000e+002 5.150000e+001 3.200000e+001
    endloop
  endfacet
  facet normal 1.000000e+000 -0.000000e+000 0.000000e+000
    outer loop
      vertex   -1.085000e+002 5.150000e+001 3.200000e+001
      vertex   -1.085000e+002 4.850000e+001 3.000000e+001
      vertex   -1.085000e+002 5.150000e+001 3.000000e+001
    endloop
  endfacet
  facet normal 0.000000e+000 9.473903e-015 1.000000e+000
    outer loop
      vertex   -1.415000e+002 4.850000e+001 3.000000e+001
      vertex   -1.550000e+002 4.775000e+001 3.000000e+001
      vertex   -1.385000e+002 4.850000e+001 3.000000e+001
    endloop
  endfacet
  facet normal 5.263280e-016 0.000000e+000 1.000000e+000
    outer loop
      vertex   -1.415000e+002 4.850000e+001 3.000000e+001
      vertex   -1.550000e+002 5.225000e+001 3.000000e+001
      vertex   -1.550000e+002 4.775000e+001 3.000000e+001
    endloop
  endfacet
  facet normal 5.263280e-016 -0.000000e+000 1.000000e+000
    outer loop
      vertex   -1.415000e+002 4.850000e+001 3.000000e+001
      vertex   -1.415000e+002 5.150000e+001 3.000000e+001
      vertex   -1.550000e+002 5.225000e+001 3.000000e+001
    endloop
  endfacet
  facet normal 0.000000e+000 -9.473903e-015 1.000000e+000
    outer loop
      vertex   -1.550000e+002 5.225000e+001 3.000000e+001
      vertex   -1.415000e+002 5.150000e+001 3.000000e+001
      vertex   -1.385000e+002 5.150000e+001 3.000000e+001
    endloop
  endfacet
  facet normal 0.000000e+000 -9.473903e-015 1.000000e+000
    outer loop
      vertex   -1.100000e+002 5.225000e+001 3.000000e+001
      vertex   -1.385000e+002 5.150000e+001 3.000000e+001
      vertex   -1.115000e+002 5.150000e+001 3.000000e+001
    endloop
  endfacet
  facet normal 0.000000e+000 -9.473903e-015 1.000000e+000
    outer loop
      vertex   -1.085000e+002 5.150000e+001 3.000000e+001
      vertex   -1.100000e+002 5.225000e+001 3.000000e+001
      vertex   -1.115000e+002 5.150000e+001 3.000000e+001
    endloop
  endfacet
  facet normal 0.000000e+000 -9.473903e-015 1.000000e+000
    outer loop
      vertex   -1.085000e+002 5.150000e+001 3.000000e+001
      vertex   -8.150000e+001 5.150000e+001 3.000000e+001
      vertex   -1.100000e+002 5.225000e+001 3.000000e+001
    endloop
  endfacet
  facet normal -0.000000e+000 0.000000e+000 1.000000e+000
    outer loop
      vertex   -1.085000e+002 5.150000e+001 3.000000e+001
      vertex   -8.150000e+001 4.850000e+001 3.000000e+001
      vertex   -8.150000e+001 5.150000e+001 3.000000e+001
    endloop
  endfacet
  facet normal -0.000000e+000 0.000000e+000 1.000000e+000
    outer loop
      vertex   -1.085000e+002 5.150000e+001 3.000000e+001
      vertex   -1.085000e+002 4.850000e+001 3.000000e+001
      vertex   -8.150000e+001 4.850000e+001 3.000000e+001
    endloop
  endfacet
  facet normal 0.000000e+000 9.473903e-015 1.000000e+000
    outer loop
      vertex   -8.150000e+001 4.850000e+001 3.000000e+001
      vertex   -1.085000e+002 4.850000e+001 3.000000e+001
      vertex   -1.100000e+002 4.775000e+001 3.000000e+001
    endloop
  endfacet
  facet normal 0.000000e+000 9.473903e-015 1.000000e+000
    outer loop
      vertex   -6.500000e+001 4.775000e+001 3.000000e+001
      vertex   -8.150000e+001 4.850000e+001 3.000000e+001
      vertex   -1.100000e+002 4.775000e+001 3.000000e+001
    endloop
  endfacet
  facet normal 0.000000e+000 9.473903e-015 1.000000e+000
    outer loop
      vertex   -6.500000e+001 4.775000e+001 3.000000e+001
      vertex   -7.850000e+001 4.850000e+001 3.000000e+001
      vertex   -8.150000e+001 4.850000e+001 3.000000e+001
    endloop
  endfacet
  facet normal -5.263280e-016 0.000000e+000 1.000000e+000
    outer loop
      vertex   -6.500000e+001 4.775000e+001 3.000000e+001
      vertex   -6.500000e+001 5.225000e+001 3.000000e+001
      vertex   -7.850000e+001 4.850000e+001 3.000000e+001
    endloop
  endfacet
  facet normal -5.263280e-016 0.000000e+000 1.000000e+000
    outer loop
      vertex   -7.850000e+001 4.850000e+001 3.000000e+001
      vertex   -6.500000e+001 5.225000e+001 3.000000e+001
      vertex   -7.850000e+001 5.150000e+001 3.000000e+001
    endloop
  endfacet
  facet normal 0.000000e+000 -9.473903e-015 1.000000e+000
    outer loop
      vertex   -7.850000e+001 5.150000e+001 3.000000e+001
      vertex   -6.500000e+001 5.225000e+001 3.000000e+001
      vertex   -8.150000e+001 5.150000e+001 3.000000e+001
    endloop
  endfacet
  facet normal 0.000000e+000 -9.473903e-015 1.000000e+000
    outer loop
      vertex   -8.150000e+001 5.150000e+001 3.000000e+001
      vertex   -6.500000e+001 5.225000e+001 3.000000e+001
      vertex   -1.100000e+002 5.225000e+001 3.000000e+001
    endloop
  endfacet
  facet normal 0.000000e+000 0.000000e+000 1.000000e+000
    outer loop
      vertex   -1.115000e+002 5.150000e+001 3.000000e+001
      vertex   -1.385000e+002 5.150000e+001 3.000000e+001
      vertex   -1.115000e+002 4.850000e+001 3.000000e+001
    endloop
  endfacet
  facet normal 0.000000e+000 0.000000e+000 1.000000e+000
    outer loop
      vertex   -1.115000e+002 4.850000e+001 3.000000e+001
      vertex   -1.385000e+002 5.150000e+001 3.000000e+001
      vertex   -1.385000e+002 4.850000e+001 3.000000e+001
    endloop
  endfacet
  facet normal 0.000000e+000 9.473903e-015 1.000000e+000
    outer loop
      vertex   -1.100000e+002 4.775000e+001 3.000000e+001
      vertex   -1.385000e+002 4.850000e+001 3.000000e+001
      vertex   -1.550000e+002 4.775000e+001 3.000000e+001
    endloop
  endfacet
  facet normal 0.000000e+000 9.473903e-015 1.000000e+000
    outer loop
      vertex   -1.100000e+002 4.775000e+001 3.000000e+001
      vertex   -1.115000e+002 4.850000e+001 3.000000e+001
      vertex   -1.385000e+002 4.850000e+001 3.000000e+001
    endloop
  endfacet
  facet normal 0.000000e+000 9.473903e-015 1.000000e+000
    outer loop
      vertex   -1.100000e+002 4.775000e+001 3.000000e+001
      vertex   -1.085000e+002 4.850000e+001 3.000000e+001
      vertex   -1.115000e+002 4.850000e+001 3.000000e+001
    endloop
  endfacet
  facet normal 0.000000e+000 -9.473903e-015 1.000000e+000
    outer loop
      vertex   -1.100000e+002 5.225000e+001 3.000000e+001
      vertex   -1.550000e+002 5.225000e+001 3.000000e+001
      vertex   -1.385000e+002 5.150000e+001 3.000000e+001
    endloop
  endfacet
  facet normal -1.000000e+000 0.000000e+000 0.000000e+000
    outer loop
      vertex   -1.550000e+002 5.125000e+001 2.550000e+001
      vertex   -1.550000e+002 4.875000e+001 2.550000e+001
      vertex   -1.550000e+002 5.225000e+001 2.650000e+001
    endloop
  endfacet
  facet normal -1.000000e+000 -0.000000e+000 0.000000e+000
    outer loop
      vertex   -1.550000e+002 5.225000e+001 2.650000e+001
      vertex   -1.550000e+002 4.875000e+001 2.550000e+001
      vertex   -1.550000e+002 4.775000e+001 2.650000e+001
    endloop
  endfacet
  facet normal -1.000000e+000 -0.000000e+000 0.000000e+000
    outer loop
      vertex   -1.550000e+002 5.225000e+001 3.000000e+001
      vertex   -1.550000e+002 4.775000e+001 2.650000e+001
      vertex   -1.550000e+002 4.775000e+001 3.000000e+001
    endloop
  endfacet
  facet normal -1.000000e+000 -0.000000e+000 0.000000e+000
    outer loop
      vertex   -1.550000e+002 5.225000e+001 3.000000e+001
      vertex   -1.550000e+002 5.225000e+001 2.650000e+001
      vertex   -1.550000e+002 4.775000e+001 2.650000e+001
    endloop
  endfacet
endsolid
